<svg width="59" height="31" viewBox="0 0 59 31" fill="none" xmlns="http://www.w3.org/2000/svg">
<path d="M38.6335 1.98776L44.1135 7.46784L56.1514 7.44957C56.4925 7.44817 56.8304 7.51431 57.1457 7.64417C57.4611 7.77403 57.7476 7.96505 57.9887 8.20619C58.2299 8.44734 58.4209 8.73384 58.5507 9.04918C58.6806 9.36452 58.7467 9.70245 58.7453 10.0435L58.7271 19.4875C58.725 20.17 58.453 20.8239 57.9705 21.3065C57.4879 21.7891 56.8339 22.0611 56.1514 22.0631L47.7669 22.0814L33.1534 7.46784L29.5 11.1212C29.0155 11.6057 28.3584 11.8779 27.6733 11.8779C26.9882 11.8779 26.3311 11.6057 25.8466 11.1212C25.3621 10.6368 25.09 9.97967 25.09 9.29453C25.09 8.60939 25.3621 7.95231 25.8466 7.46784L31.3267 1.98776C32.2956 1.01882 33.6098 0.474479 34.9801 0.47448C36.3504 0.47448 37.6645 1.01882 38.6335 1.98776ZM18.5398 0.161069L11.2331 7.46784L2.86682 7.46784C2.18434 7.46987 1.53039 7.74188 1.04781 8.22447C0.565221 8.70706 0.293208 9.361 0.291177 10.0435L0.27291 19.4875C0.271513 19.8285 0.337652 20.1664 0.467512 20.4818C0.597372 20.7971 0.788388 21.0836 1.02953 21.3248C1.27068 21.5659 1.55718 21.7569 1.87252 21.8868C2.18786 22.0166 2.52579 22.0828 2.86681 22.0814L18.5398 22.0814L25.8466 29.3881C26.3311 29.8726 26.9882 30.1448 27.6733 30.1448C28.3584 30.1448 29.0155 29.8726 29.5 29.3882L31.3267 27.5615L33.1534 29.3881C33.6378 29.8726 34.2949 30.1448 34.9801 30.1448C35.6652 30.1448 36.3223 29.8726 36.8068 29.3881L38.6335 27.5615L40.4602 29.3882C40.9446 29.8726 41.6017 30.1448 42.2868 30.1448C42.972 30.1448 43.6291 29.8726 44.1135 29.3882L45.9402 27.5615L33.1534 14.7746L31.3267 16.6013C30.3577 17.5702 29.0436 18.1146 27.6733 18.1146C26.303 18.1146 24.9889 17.5702 24.0199 16.6013L20.3665 12.9479C19.3976 11.979 18.8532 10.6648 18.8533 9.29453C18.8532 7.92425 19.3976 6.61009 20.3665 5.64115L25.8466 0.161068L18.5398 0.161069Z" fill="#243883"/>
</svg>
