<svg width="58" height="42" viewBox="0 0 58 42" fill="none" xmlns="http://www.w3.org/2000/svg">
<path d="M10.9167 0.434082H57.4167V31.4341H10.9167V0.434082ZM34.1667 8.18408C36.2221 8.18408 38.1933 9.0006 39.6467 10.454C41.1002 11.9074 41.9167 13.8787 41.9167 15.9341C41.9167 17.9895 41.1002 19.9608 39.6467 21.4142C38.1933 22.8676 36.2221 23.6841 34.1667 23.6841C32.1112 23.6841 30.14 22.8676 28.6866 21.4142C27.2332 19.9608 26.4167 17.9895 26.4167 15.9341C26.4167 13.8787 27.2332 11.9074 28.6866 10.454C30.14 9.0006 32.1112 8.18408 34.1667 8.18408ZM21.25 5.60075C21.25 6.97103 20.7057 8.28519 19.7367 9.25413C18.7678 10.2231 17.4536 10.7674 16.0833 10.7674V21.1007C17.4536 21.1007 18.7678 21.6451 19.7367 22.614C20.7057 23.583 21.25 24.8971 21.25 26.2674H47.0833C47.0833 24.8971 47.6277 23.583 48.5966 22.614C49.5656 21.6451 50.8797 21.1007 52.25 21.1007V10.7674C50.8797 10.7674 49.5656 10.2231 48.5966 9.25413C47.6277 8.28519 47.0833 6.97103 47.0833 5.60075H21.25ZM0.583332 10.7674H5.75V36.6007H47.0833V41.7674H0.583332V10.7674Z" fill="#243883"/>
</svg>
