<svg width="52" height="52" viewBox="0 0 52 52" fill="none" xmlns="http://www.w3.org/2000/svg">
<path d="M15.15 0.10083H36.85C45.1167 0.10083 51.8333 6.8175 51.8333 15.0842V36.7842C51.8333 40.758 50.2547 44.5691 47.4448 47.379C44.6349 50.1889 40.8238 51.7675 36.85 51.7675H15.15C6.88332 51.7675 0.166656 45.0508 0.166656 36.7842V15.0842C0.166656 11.1103 1.74525 7.29927 4.55517 4.48935C7.36509 1.67943 11.1762 0.10083 15.15 0.10083ZM14.6333 5.2675C12.1668 5.2675 9.80132 6.24732 8.05723 7.9914C6.31314 9.73549 5.33332 12.101 5.33332 14.5675V37.3008C5.33332 42.4417 9.49249 46.6008 14.6333 46.6008H37.3667C39.8332 46.6008 42.1987 45.621 43.9428 43.8769C45.6868 42.1328 46.6667 39.7673 46.6667 37.3008V14.5675C46.6667 9.42666 42.5075 5.2675 37.3667 5.2675H14.6333ZM39.5625 9.1425C40.4189 9.1425 41.2403 9.48271 41.8459 10.0883C42.4514 10.6939 42.7917 11.5152 42.7917 12.3717C42.7917 13.2281 42.4514 14.0494 41.8459 14.655C41.2403 15.2606 40.4189 15.6008 39.5625 15.6008C38.7061 15.6008 37.8847 15.2606 37.2791 14.655C36.6735 14.0494 36.3333 13.2281 36.3333 12.3717C36.3333 11.5152 36.6735 10.6939 37.2791 10.0883C37.8847 9.48271 38.7061 9.1425 39.5625 9.1425ZM26 13.0175C29.4257 13.0175 32.7111 14.3784 35.1335 16.8007C37.5558 19.223 38.9167 22.5085 38.9167 25.9342C38.9167 29.3599 37.5558 32.6453 35.1335 35.0676C32.7111 37.49 29.4257 38.8508 26 38.8508C22.5743 38.8508 19.2889 37.49 16.8665 35.0676C14.4442 32.6453 13.0833 29.3599 13.0833 25.9342C13.0833 22.5085 14.4442 19.223 16.8665 16.8007C19.2889 14.3784 22.5743 13.0175 26 13.0175ZM26 18.1842C23.9446 18.1842 21.9733 19.0007 20.5199 20.4541C19.0665 21.9075 18.25 23.8787 18.25 25.9342C18.25 27.9896 19.0665 29.9608 20.5199 31.4142C21.9733 32.8676 23.9446 33.6842 26 33.6842C28.0554 33.6842 30.0267 32.8676 31.4801 31.4142C32.9335 29.9608 33.75 27.9896 33.75 25.9342C33.75 23.8787 32.9335 21.9075 31.4801 20.4541C30.0267 19.0007 28.0554 18.1842 26 18.1842Z" fill="#243883"/>
</svg>
