<svg width="185" height="45" viewBox="0 0 185 45" fill="none" xmlns="http://www.w3.org/2000/svg">
<path d="M8.08961 6.46924C8.8785 2.77883 12.1391 0.141602 15.9129 0.141602H174.527C179.493 0.141602 183.259 4.61821 182.409 9.51059L177.546 37.5106C176.88 41.3433 173.554 44.1416 169.664 44.1416H9.92738C4.83585 44.1416 1.03978 39.4483 2.10413 34.4692L8.08961 6.46924Z" fill="#243883"/>
<path d="M30.4002 28.2993V16.663H37.9684V18.43H32.5081V21.5891H37.5763V23.3561H32.5081V26.5323H38.0138V28.2993H30.4002ZM41.7098 19.572L43.4712 22.7936L45.261 19.572H47.4371L44.8064 23.9357L47.4826 28.2993H45.3178L43.4712 25.1573L41.6416 28.2993H39.4598L42.1189 23.9357L39.528 19.572H41.7098ZM49.028 31.572V19.572H51.0507V21.0152H51.1701C51.2761 20.8031 51.4257 20.5777 51.6189 20.3391C51.8121 20.0967 52.0735 19.8902 52.403 19.7198C52.7326 19.5455 53.153 19.4584 53.6644 19.4584C54.3386 19.4584 54.9466 19.6308 55.4882 19.9755C56.0337 20.3164 56.4655 20.822 56.7837 21.4925C57.1057 22.1592 57.2666 22.9773 57.2666 23.947C57.2666 24.9054 57.1094 25.7198 56.7951 26.3902C56.4807 27.0607 56.0526 27.572 55.511 27.9243C54.9693 28.2766 54.3557 28.4527 53.6701 28.4527C53.1701 28.4527 52.7553 28.3694 52.4257 28.2027C52.0962 28.0361 51.831 27.8353 51.6303 27.6005C51.4333 27.3618 51.2799 27.1364 51.1701 26.9243H51.0848V31.572H49.028ZM51.0451 23.9357C51.0451 24.5001 51.1246 24.9944 51.2837 25.4186C51.4466 25.8429 51.6795 26.1743 51.9826 26.413C52.2894 26.6478 52.6606 26.7652 53.0962 26.7652C53.5507 26.7652 53.9314 26.644 54.2382 26.4016C54.5451 26.1554 54.7761 25.8201 54.9314 25.3959C55.0905 24.9679 55.1701 24.4811 55.1701 23.9357C55.1701 23.394 55.0924 22.913 54.9371 22.4925C54.7818 22.072 54.5507 21.7425 54.2439 21.5039C53.9371 21.2652 53.5545 21.1459 53.0962 21.1459C52.6568 21.1459 52.2837 21.2614 51.9769 21.4925C51.6701 21.7236 51.4371 22.0474 51.278 22.4641C51.1227 22.8808 51.0451 23.3713 51.0451 23.9357ZM61.0848 16.663V28.2993H59.028V16.663H61.0848ZM67.0067 28.4698C66.1544 28.4698 65.4158 28.2823 64.7908 27.9073C64.1658 27.5323 63.6809 27.0076 63.3362 26.3334C62.9953 25.6592 62.8249 24.8713 62.8249 23.9698C62.8249 23.0683 62.9953 22.2785 63.3362 21.6005C63.6809 20.9224 64.1658 20.3959 64.7908 20.0209C65.4158 19.6459 66.1544 19.4584 67.0067 19.4584C67.859 19.4584 68.5976 19.6459 69.2226 20.0209C69.8476 20.3959 70.3306 20.9224 70.6715 21.6005C71.0162 22.2785 71.1885 23.0683 71.1885 23.9698C71.1885 24.8713 71.0162 25.6592 70.6715 26.3334C70.3306 27.0076 69.8476 27.5323 69.2226 27.9073C68.5976 28.2823 67.859 28.4698 67.0067 28.4698ZM67.0181 26.822C67.4802 26.822 67.8666 26.6951 68.1772 26.4414C68.4878 26.1838 68.7188 25.8391 68.8703 25.4073C69.0256 24.9755 69.1033 24.4944 69.1033 23.9641C69.1033 23.43 69.0256 22.947 68.8703 22.5152C68.7188 22.0796 68.4878 21.733 68.1772 21.4755C67.8666 21.2179 67.4802 21.0891 67.0181 21.0891C66.5446 21.0891 66.1506 21.2179 65.8362 21.4755C65.5256 21.733 65.2927 22.0796 65.1374 22.5152C64.9859 22.947 64.9101 23.43 64.9101 23.9641C64.9101 24.4944 64.9859 24.9755 65.1374 25.4073C65.2927 25.8391 65.5256 26.1838 65.8362 26.4414C66.1506 26.6951 66.5446 26.822 67.0181 26.822ZM72.9343 28.2993V19.572H74.9286V21.0266H75.0195C75.1786 20.5228 75.4513 20.1345 75.8377 19.8618C76.2278 19.5853 76.6729 19.447 77.1729 19.447C77.2865 19.447 77.4134 19.4527 77.5536 19.4641C77.6975 19.4717 77.8168 19.4849 77.9115 19.5039V21.3959C77.8244 21.3656 77.6862 21.3391 77.4968 21.3164C77.3112 21.2898 77.1312 21.2766 76.957 21.2766C76.582 21.2766 76.2449 21.358 75.9456 21.5209C75.6502 21.68 75.4172 21.9016 75.2468 22.1857C75.0763 22.4698 74.9911 22.7974 74.9911 23.1686V28.2993H72.9343ZM82.7823 28.4698C81.9073 28.4698 81.1516 28.288 80.5152 27.9243C79.8826 27.5569 79.3959 27.038 79.055 26.3675C78.7141 25.6933 78.5436 24.8997 78.5436 23.9868C78.5436 23.0891 78.7141 22.3012 79.055 21.6232C79.3997 20.9414 79.8808 20.4111 80.4982 20.0323C81.1156 19.6497 81.841 19.4584 82.6743 19.4584C83.2122 19.4584 83.7198 19.5455 84.197 19.7198C84.6781 19.8902 85.1023 20.1554 85.4698 20.5152C85.841 20.8751 86.1327 21.3334 86.3448 21.8902C86.5569 22.4433 86.663 23.1023 86.663 23.8675V24.4982H79.5095V23.1118H84.6914C84.6876 22.7179 84.6023 22.3675 84.4357 22.0607C84.269 21.7501 84.0361 21.5058 83.7368 21.3277C83.4414 21.1497 83.0967 21.0607 82.7027 21.0607C82.2823 21.0607 81.913 21.163 81.5948 21.3675C81.2766 21.5683 81.0285 21.8334 80.8505 22.163C80.6762 22.4887 80.5872 22.8467 80.5834 23.2368V24.447C80.5834 24.9546 80.6762 25.3902 80.8618 25.7539C81.0474 26.1137 81.3069 26.3902 81.6402 26.5834C81.9736 26.7728 82.3637 26.8675 82.8107 26.8675C83.1099 26.8675 83.3808 26.8258 83.6232 26.7425C83.8656 26.6554 84.0758 26.5285 84.2539 26.3618C84.4319 26.1951 84.5664 25.9887 84.6573 25.7425L86.5777 25.9584C86.4565 26.466 86.2255 26.9092 85.8845 27.288C85.5474 27.663 85.1156 27.9546 84.5891 28.163C84.0626 28.3675 83.4603 28.4698 82.7823 28.4698ZM102.423 20.5891H100.298C100.237 20.2406 100.126 19.9319 99.9627 19.663C99.7998 19.3902 99.5971 19.1592 99.3547 18.9698C99.1123 18.7804 98.8358 18.6383 98.5252 18.5436C98.2184 18.4451 97.8869 18.3959 97.5309 18.3959C96.8983 18.3959 96.3377 18.555 95.849 18.8732C95.3604 19.1876 94.9778 19.6497 94.7013 20.2595C94.4248 20.8656 94.2865 21.6061 94.2865 22.4811C94.2865 23.3713 94.4248 24.1213 94.7013 24.7311C94.9816 25.3372 95.3642 25.7955 95.849 26.1061C96.3377 26.413 96.8964 26.5664 97.5252 26.5664C97.8737 26.5664 98.1994 26.5209 98.5024 26.43C98.8093 26.3353 99.0839 26.197 99.3263 26.0152C99.5725 25.8334 99.779 25.6099 99.9456 25.3448C100.116 25.0796 100.234 24.7766 100.298 24.4357L102.423 24.447C102.343 25.0001 102.171 25.519 101.906 26.0039C101.644 26.4887 101.302 26.9167 100.877 27.288C100.453 27.6554 99.957 27.9433 99.3888 28.1516C98.8206 28.3561 98.1899 28.4584 97.4968 28.4584C96.474 28.4584 95.5612 28.2217 94.7581 27.7482C93.9551 27.2747 93.3225 26.591 92.8604 25.697C92.3983 24.8031 92.1672 23.7311 92.1672 22.4811C92.1672 21.2273 92.4002 20.1554 92.8661 19.2652C93.332 18.3713 93.9665 17.6876 94.7695 17.2141C95.5725 16.7406 96.4816 16.5039 97.4968 16.5039C98.1445 16.5039 98.7468 16.5948 99.3036 16.7766C99.8604 16.9584 100.357 17.2255 100.792 17.5777C101.228 17.9262 101.586 18.3542 101.866 18.8618C102.15 19.3656 102.336 19.9414 102.423 20.5891ZM108.069 28.4698C107.217 28.4698 106.478 28.2823 105.853 27.9073C105.228 27.5323 104.743 27.0076 104.399 26.3334C104.058 25.6592 103.887 24.8713 103.887 23.9698C103.887 23.0683 104.058 22.2785 104.399 21.6005C104.743 20.9224 105.228 20.3959 105.853 20.0209C106.478 19.6459 107.217 19.4584 108.069 19.4584C108.921 19.4584 109.66 19.6459 110.285 20.0209C110.91 20.3959 111.393 20.9224 111.734 21.6005C112.079 22.2785 112.251 23.0683 112.251 23.9698C112.251 24.8713 112.079 25.6592 111.734 26.3334C111.393 27.0076 110.91 27.5323 110.285 27.9073C109.66 28.2823 108.921 28.4698 108.069 28.4698ZM108.081 26.822C108.543 26.822 108.929 26.6951 109.24 26.4414C109.55 26.1838 109.781 25.8391 109.933 25.4073C110.088 24.9755 110.166 24.4944 110.166 23.9641C110.166 23.43 110.088 22.947 109.933 22.5152C109.781 22.0796 109.55 21.733 109.24 21.4755C108.929 21.2179 108.543 21.0891 108.081 21.0891C107.607 21.0891 107.213 21.2179 106.899 21.4755C106.588 21.733 106.355 22.0796 106.2 22.5152C106.048 22.947 105.973 23.43 105.973 23.9641C105.973 24.4944 106.048 24.9755 106.2 25.4073C106.355 25.8391 106.588 26.1838 106.899 26.4414C107.213 26.6951 107.607 26.822 108.081 26.822ZM119.559 24.6289V19.572H121.616V28.2993H119.622V26.7482H119.531C119.334 27.2368 119.01 27.6364 118.559 27.947C118.112 28.2576 117.561 28.413 116.906 28.413C116.334 28.413 115.828 28.2861 115.389 28.0323C114.953 27.7747 114.612 27.4016 114.366 26.913C114.12 26.4205 113.997 25.8258 113.997 25.1289V19.572H116.054V24.8107C116.054 25.3637 116.205 25.8031 116.508 26.1289C116.811 26.4546 117.209 26.6175 117.701 26.6175C118.004 26.6175 118.298 26.5436 118.582 26.3959C118.866 26.2482 119.099 26.0285 119.281 25.7368C119.466 25.4414 119.559 25.072 119.559 24.6289ZM123.731 28.2993V19.572H125.725V21.0266H125.816C125.975 20.5228 126.248 20.1345 126.635 19.8618C127.025 19.5853 127.47 19.447 127.97 19.447C128.083 19.447 128.21 19.4527 128.35 19.4641C128.494 19.4717 128.614 19.4849 128.708 19.5039V21.3959C128.621 21.3656 128.483 21.3391 128.294 21.3164C128.108 21.2898 127.928 21.2766 127.754 21.2766C127.379 21.2766 127.042 21.358 126.742 21.5209C126.447 21.68 126.214 21.9016 126.044 22.1857C125.873 22.4698 125.788 22.7974 125.788 23.1686V28.2993H123.731ZM136.973 21.8789L135.098 22.0834C135.045 21.894 134.952 21.716 134.819 21.5493C134.69 21.3826 134.516 21.2482 134.296 21.1459C134.077 21.0436 133.808 20.9925 133.49 20.9925C133.062 20.9925 132.702 21.0853 132.41 21.2709C132.122 21.4565 131.98 21.697 131.984 21.9925C131.98 22.2463 132.073 22.4527 132.262 22.6118C132.456 22.7709 132.774 22.9016 133.217 23.0039L134.706 23.322C135.531 23.5001 136.145 23.7823 136.546 24.1686C136.952 24.555 137.156 25.0607 137.16 25.6857C137.156 26.2349 136.995 26.7198 136.677 27.1402C136.363 27.5569 135.925 27.8826 135.365 28.1175C134.804 28.3523 134.16 28.4698 133.433 28.4698C132.365 28.4698 131.505 28.2463 130.853 27.7993C130.202 27.3486 129.814 26.7217 129.689 25.9186L131.694 25.7255C131.785 26.1194 131.978 26.4167 132.274 26.6175C132.569 26.8183 132.954 26.9186 133.427 26.9186C133.916 26.9186 134.308 26.8183 134.603 26.6175C134.903 26.4167 135.052 26.1686 135.052 25.8732C135.052 25.6232 134.956 25.4167 134.762 25.2539C134.573 25.091 134.278 24.966 133.876 24.8789L132.387 24.5664C131.55 24.3921 130.931 24.0986 130.529 23.6857C130.128 23.269 129.929 22.7425 129.933 22.1061C129.929 21.5683 130.075 21.1023 130.37 20.7084C130.67 20.3107 131.084 20.0039 131.615 19.788C132.149 19.5683 132.764 19.4584 133.461 19.4584C134.484 19.4584 135.289 19.6762 135.876 20.1118C136.467 20.5474 136.832 21.1364 136.973 21.8789ZM142.72 28.4698C141.845 28.4698 141.089 28.288 140.453 27.9243C139.82 27.5569 139.333 27.038 138.992 26.3675C138.652 25.6933 138.481 24.8997 138.481 23.9868C138.481 23.0891 138.652 22.3012 138.992 21.6232C139.337 20.9414 139.818 20.4111 140.436 20.0323C141.053 19.6497 141.778 19.4584 142.612 19.4584C143.15 19.4584 143.657 19.5455 144.135 19.7198C144.616 19.8902 145.04 20.1554 145.407 20.5152C145.778 20.8751 146.07 21.3334 146.282 21.8902C146.494 22.4433 146.6 23.1023 146.6 23.8675V24.4982H139.447V23.1118H144.629C144.625 22.7179 144.54 22.3675 144.373 22.0607C144.207 21.7501 143.974 21.5058 143.674 21.3277C143.379 21.1497 143.034 21.0607 142.64 21.0607C142.22 21.0607 141.85 21.163 141.532 21.3675C141.214 21.5683 140.966 21.8334 140.788 22.163C140.614 22.4887 140.525 22.8467 140.521 23.2368V24.447C140.521 24.9546 140.614 25.3902 140.799 25.7539C140.985 26.1137 141.244 26.3902 141.578 26.5834C141.911 26.7728 142.301 26.8675 142.748 26.8675C143.047 26.8675 143.318 26.8258 143.561 26.7425C143.803 26.6554 144.013 26.5285 144.191 26.3618C144.369 26.1951 144.504 25.9887 144.595 25.7425L146.515 25.9584C146.394 26.466 146.163 26.9092 145.822 27.288C145.485 27.663 145.053 27.9546 144.527 28.163C144 28.3675 143.398 28.4698 142.72 28.4698ZM155.238 21.8789L153.363 22.0834C153.31 21.894 153.217 21.716 153.085 21.5493C152.956 21.3826 152.782 21.2482 152.562 21.1459C152.342 21.0436 152.073 20.9925 151.755 20.9925C151.327 20.9925 150.967 21.0853 150.676 21.2709C150.388 21.4565 150.246 21.697 150.25 21.9925C150.246 22.2463 150.339 22.4527 150.528 22.6118C150.721 22.7709 151.039 22.9016 151.483 23.0039L152.971 23.322C153.797 23.5001 154.411 23.7823 154.812 24.1686C155.217 24.555 155.422 25.0607 155.426 25.6857C155.422 26.2349 155.261 26.7198 154.943 27.1402C154.628 27.5569 154.191 27.8826 153.63 28.1175C153.07 28.3523 152.426 28.4698 151.698 28.4698C150.63 28.4698 149.77 28.2463 149.119 27.7993C148.467 27.3486 148.079 26.7217 147.954 25.9186L149.96 25.7255C150.051 26.1194 150.244 26.4167 150.539 26.6175C150.835 26.8183 151.219 26.9186 151.693 26.9186C152.181 26.9186 152.573 26.8183 152.869 26.6175C153.168 26.4167 153.318 26.1686 153.318 25.8732C153.318 25.6232 153.221 25.4167 153.028 25.2539C152.839 25.091 152.543 24.966 152.142 24.8789L150.653 24.5664C149.816 24.3921 149.197 24.0986 148.795 23.6857C148.394 23.269 148.195 22.7425 148.198 22.1061C148.195 21.5683 148.341 21.1023 148.636 20.7084C148.935 20.3107 149.35 20.0039 149.88 19.788C150.414 19.5683 151.03 19.4584 151.727 19.4584C152.75 19.4584 153.555 19.6762 154.142 20.1118C154.733 20.5474 155.098 21.1364 155.238 21.8789Z" fill="white"/>
</svg>
