<svg width="58" height="40" viewBox="0 0 58 40" fill="none" xmlns="http://www.w3.org/2000/svg">
<path d="M29 12.25C26.9446 12.25 24.9733 13.0665 23.5199 14.5199C22.0665 15.9733 21.25 17.9446 21.25 20C21.25 22.0554 22.0665 24.0267 23.5199 25.4801C24.9733 26.9335 26.9446 27.75 29 27.75C31.0554 27.75 33.0266 26.9335 34.4801 25.4801C35.9335 24.0267 36.75 22.0554 36.75 20C36.75 17.9446 35.9335 15.9733 34.4801 14.5199C33.0266 13.0665 31.0554 12.25 29 12.25ZM29 32.9167C25.5743 32.9167 22.2889 31.5558 19.8665 29.1335C17.4442 26.7111 16.0833 23.4257 16.0833 20C16.0833 16.5743 17.4442 13.2889 19.8665 10.8665C22.2889 8.44419 25.5743 7.08333 29 7.08333C32.4257 7.08333 35.7111 8.44419 38.1334 10.8665C40.5558 13.2889 41.9166 16.5743 41.9166 20C41.9166 23.4257 40.5558 26.7111 38.1334 29.1335C35.7111 31.5558 32.4257 32.9167 29 32.9167ZM29 0.625C16.0833 0.625 5.05248 8.65917 0.583313 20C5.05248 31.3408 16.0833 39.375 29 39.375C41.9166 39.375 52.9475 31.3408 57.4166 20C52.9475 8.65917 41.9166 0.625 29 0.625Z" fill="#243883"/>
</svg>
