<svg width="23" height="16" viewBox="0 0 23 16" fill="none" xmlns="http://www.w3.org/2000/svg">
<path d="M17.8889 6.59534L23 1.59534V15.3453L17.8889 10.3453V14.7203C17.8889 15.0519 17.7543 15.3698 17.5146 15.6042C17.275 15.8386 16.95 15.9703 16.6111 15.9703H1.27778C0.93889 15.9703 0.613882 15.8386 0.374252 15.6042C0.134623 15.3698 0 15.0519 0 14.7203V2.22034C0 1.88882 0.134623 1.57087 0.374252 1.33645C0.613882 1.10203 0.93889 0.970337 1.27778 0.970337H16.6111C16.95 0.970337 17.275 1.10203 17.5146 1.33645C17.7543 1.57087 17.8889 1.88882 17.8889 2.22034V6.59534ZM14.0556 13.4703V12.2203C14.0556 10.5578 10.6439 9.72034 8.94444 9.72034C7.245 9.72034 3.83333 10.5578 3.83333 12.2203V13.4703H14.0556ZM8.94444 3.47034C8.26667 3.47034 7.61665 3.73373 7.13739 4.20257C6.65813 4.67141 6.38889 5.3073 6.38889 5.97034C6.38889 6.63338 6.65813 7.26926 7.13739 7.7381C7.61665 8.20694 8.26667 8.47034 8.94444 8.47034C9.62222 8.47034 10.2722 8.20694 10.7515 7.7381C11.2308 7.26926 11.5 6.63338 11.5 5.97034C11.5 5.3073 11.2308 4.67141 10.7515 4.20257C10.2722 3.73373 9.62222 3.47034 8.94444 3.47034Z" fill="#243883"/>
</svg>
