<svg width="40" height="40" viewBox="0 0 40 40" fill="none" xmlns="http://www.w3.org/2000/svg">
<rect width="40" height="40" rx="20" fill="white"/>
<path d="M17.2 13.3333H22.8C24.9333 13.3333 26.6666 15.0666 26.6666 17.2V22.8C26.6666 23.8255 26.2593 24.809 25.5341 25.5341C24.809 26.2593 23.8255 26.6666 22.8 26.6666H17.2C15.0666 26.6666 13.3333 24.9333 13.3333 22.8V17.2C13.3333 16.1745 13.7407 15.191 14.4658 14.4658C15.191 13.7407 16.1745 13.3333 17.2 13.3333ZM17.0666 14.6666C16.4301 14.6666 15.8197 14.9195 15.3696 15.3696C14.9195 15.8197 14.6666 16.4301 14.6666 17.0666V22.9333C14.6666 24.26 15.74 25.3333 17.0666 25.3333H22.9333C23.5698 25.3333 24.1803 25.0805 24.6304 24.6304C25.0805 24.1803 25.3333 23.5698 25.3333 22.9333V17.0666C25.3333 15.74 24.26 14.6666 22.9333 14.6666H17.0666ZM23.5 15.6666C23.721 15.6666 23.933 15.7544 24.0892 15.9107C24.2455 16.067 24.3333 16.279 24.3333 16.5C24.3333 16.721 24.2455 16.933 24.0892 17.0892C23.933 17.2455 23.721 17.3333 23.5 17.3333C23.279 17.3333 23.067 17.2455 22.9107 17.0892C22.7544 16.933 22.6666 16.721 22.6666 16.5C22.6666 16.279 22.7544 16.067 22.9107 15.9107C23.067 15.7544 23.279 15.6666 23.5 15.6666ZM20 16.6666C20.884 16.6666 21.7319 17.0178 22.357 17.643C22.9821 18.2681 23.3333 19.1159 23.3333 20C23.3333 20.884 22.9821 21.7319 22.357 22.357C21.7319 22.9821 20.884 23.3333 20 23.3333C19.1159 23.3333 18.2681 22.9821 17.643 22.357C17.0178 21.7319 16.6666 20.884 16.6666 20C16.6666 19.1159 17.0178 18.2681 17.643 17.643C18.2681 17.0178 19.1159 16.6666 20 16.6666ZM20 18C19.4695 18 18.9608 18.2107 18.5858 18.5858C18.2107 18.9608 18 19.4695 18 20C18 20.5304 18.2107 21.0391 18.5858 21.4142C18.9608 21.7893 19.4695 22 20 22C20.5304 22 21.0391 21.7893 21.4142 21.4142C21.7893 21.0391 22 20.5304 22 20C22 19.4695 21.7893 18.9608 21.4142 18.5858C21.0391 18.2107 20.5304 18 20 18Z" fill="black"/>
</svg>
