<svg width="40" height="40" viewBox="0 0 40 40" fill="none" xmlns="http://www.w3.org/2000/svg">
<rect width="40" height="40" rx="20" fill="white"/>
<path d="M25.25 13.25C25.6478 13.25 26.0294 13.408 26.3107 13.6893C26.592 13.9706 26.75 14.3522 26.75 14.75V25.25C26.75 25.6478 26.592 26.0294 26.3107 26.3107C26.0294 26.592 25.6478 26.75 25.25 26.75H14.75C14.3522 26.75 13.9706 26.592 13.6893 26.3107C13.408 26.0294 13.25 25.6478 13.25 25.25V14.75C13.25 14.3522 13.408 13.9706 13.6893 13.6893C13.9706 13.408 14.3522 13.25 14.75 13.25H25.25ZM24.875 24.875V20.9C24.875 20.2515 24.6174 19.6297 24.1589 19.1711C23.7003 18.7126 23.0785 18.455 22.43 18.455C21.7925 18.455 21.05 18.845 20.69 19.43V18.5975H18.5975V24.875H20.69V21.1775C20.69 20.6 21.155 20.1275 21.7325 20.1275C22.011 20.1275 22.278 20.2381 22.475 20.435C22.6719 20.632 22.7825 20.899 22.7825 21.1775V24.875H24.875ZM16.16 17.42C16.4942 17.42 16.8147 17.2873 17.051 17.051C17.2873 16.8147 17.42 16.4942 17.42 16.16C17.42 15.4625 16.8575 14.8925 16.16 14.8925C15.8238 14.8925 15.5014 15.026 15.2637 15.2637C15.026 15.5014 14.8925 15.8238 14.8925 16.16C14.8925 16.8575 15.4625 17.42 16.16 17.42ZM17.2025 24.875V18.5975H15.125V24.875H17.2025Z" fill="black"/>
</svg>
