<svg width="63" height="38" viewBox="0 0 63 38" fill="none" xmlns="http://www.w3.org/2000/svg">
<path d="M31.5 0.208374C33.898 0.208374 36.1978 1.16098 37.8934 2.85662C39.5891 4.55226 40.5417 6.85204 40.5417 9.25004C40.5417 11.648 39.5891 13.9478 37.8934 15.6435C36.1978 17.3391 33.898 18.2917 31.5 18.2917C29.102 18.2917 26.8022 17.3391 25.1066 15.6435C23.4109 13.9478 22.4583 11.648 22.4583 9.25004C22.4583 6.85204 23.4109 4.55226 25.1066 2.85662C26.8022 1.16098 29.102 0.208374 31.5 0.208374ZM13.4167 6.66671C14.8633 6.66671 16.2067 7.05421 17.3692 7.75171C16.9817 11.4459 18.0667 15.1142 20.2883 17.9817C18.9967 20.4617 16.4133 22.1667 13.4167 22.1667C11.3612 22.1667 9.39 21.3502 7.93659 19.8968C6.48318 18.4434 5.66667 16.4721 5.66667 14.4167C5.66667 12.3613 6.48318 10.39 7.93659 8.93663C9.39 7.48322 11.3612 6.66671 13.4167 6.66671ZM49.5833 6.66671C51.6388 6.66671 53.61 7.48322 55.0634 8.93663C56.5168 10.39 57.3333 12.3613 57.3333 14.4167C57.3333 16.4721 56.5168 18.4434 55.0634 19.8968C53.61 21.3502 51.6388 22.1667 49.5833 22.1667C46.5867 22.1667 44.0033 20.4617 42.7117 17.9817C44.9333 15.1142 46.0183 11.4459 45.6308 7.75171C46.7933 7.05421 48.1367 6.66671 49.5833 6.66671ZM14.7083 33.1459C14.7083 27.7984 22.2258 23.4584 31.5 23.4584C40.7742 23.4584 48.2917 27.7984 48.2917 33.1459V37.6667H14.7083V33.1459ZM0.5 37.6667V33.7917C0.5 30.2009 5.3825 27.1784 11.9958 26.3C10.4717 28.0567 9.54167 30.485 9.54167 33.1459V37.6667H0.5ZM62.5 37.6667H53.4583V33.1459C53.4583 30.485 52.5283 28.0567 51.0042 26.3C57.6175 27.1784 62.5 30.2009 62.5 33.7917V37.6667Z" fill="#243883"/>
</svg>
