<svg width="258" height="39" viewBox="0 0 258 39" fill="none" xmlns="http://www.w3.org/2000/svg">
<path d="M20.0321 39.0001L9.93726 32.591V19.6951L20.0321 26.2091V39.0001Z" fill="#243883"/>
<path d="M20.1207 0.215576L30.2531 6.86177V19.6791L20.032 13.1568L20.1207 0.215576Z" fill="#243883"/>
<path d="M20.0109 13.1448L10.1494 6.85132L0 13.4182L9.95702 19.7797L19.9816 13.1667C19.9904 13.1584 20.0007 13.1516 20.0109 13.1448Z" fill="#243883"/>
<path d="M30.2074 19.6421L20.0757 26.2347L30.0648 32.6165L40 25.8918L30.2074 19.6421Z" fill="#243883"/>
<path d="M55.483 13.4715H57.5909V21.0738C57.5909 21.9072 57.3939 22.6401 57 23.2727C56.6098 23.9053 56.0606 24.3996 55.3523 24.7556C54.6439 25.1079 53.8163 25.284 52.8693 25.284C51.9186 25.284 51.089 25.1079 50.3807 24.7556C49.6723 24.3996 49.1231 23.9053 48.733 23.2727C48.3428 22.6401 48.1477 21.9072 48.1477 21.0738V13.4715H50.2557V20.8977C50.2557 21.3825 50.3617 21.8143 50.5739 22.1931C50.7898 22.5719 51.0928 22.8693 51.483 23.0852C51.8731 23.2973 52.3352 23.4034 52.8693 23.4034C53.4034 23.4034 53.8655 23.2973 54.2557 23.0852C54.6496 22.8693 54.9527 22.5719 55.1648 22.1931C55.3769 21.8143 55.483 21.3825 55.483 20.8977V13.4715ZM61.848 19.9943V25.1079H59.7912V16.3806H61.7571V17.8636H61.8594C62.0601 17.375 62.3802 16.9867 62.8196 16.6988C63.2628 16.4109 63.8101 16.267 64.4616 16.267C65.0639 16.267 65.5885 16.3958 66.0355 16.6534C66.4863 16.9109 66.8348 17.284 67.081 17.7727C67.331 18.2613 67.4541 18.8541 67.4503 19.5511V25.1079H65.3935V19.8693C65.3935 19.2859 65.242 18.8295 64.9389 18.5C64.6397 18.1704 64.2249 18.0056 63.6946 18.0056C63.3348 18.0056 63.0147 18.0852 62.7344 18.2443C62.4579 18.3996 62.2401 18.625 62.081 18.9204C61.9257 19.2159 61.848 19.5738 61.848 19.9943ZM69.6321 25.1079V13.4715H71.6889V17.8238H71.7741C71.8802 17.6117 72.0298 17.3863 72.223 17.1477C72.4162 16.9053 72.6776 16.6988 73.0071 16.5284C73.3366 16.3541 73.7571 16.267 74.2685 16.267C74.9427 16.267 75.5507 16.4393 76.0923 16.784C76.6378 17.125 77.0696 17.6306 77.3878 18.3011C77.7098 18.9678 77.8707 19.7859 77.8707 20.7556C77.8707 21.714 77.7135 22.5284 77.3991 23.1988C77.0848 23.8693 76.6567 24.3806 76.1151 24.7329C75.5734 25.0852 74.9598 25.2613 74.2741 25.2613C73.7741 25.2613 73.3594 25.178 73.0298 25.0113C72.7003 24.8447 72.4351 24.6439 72.2344 24.409C72.0374 24.1704 71.884 23.945 71.7741 23.7329H71.6548V25.1079H69.6321ZM71.6491 20.7443C71.6491 21.3087 71.7287 21.803 71.8878 22.2272C72.0507 22.6515 72.2836 22.9829 72.5866 23.2215C72.8935 23.4564 73.2647 23.5738 73.7003 23.5738C74.1548 23.5738 74.5355 23.4526 74.8423 23.2102C75.1491 22.964 75.3802 22.6287 75.5355 22.2045C75.6946 21.7765 75.7741 21.2897 75.7741 20.7443C75.7741 20.2026 75.6965 19.7215 75.5412 19.3011C75.3859 18.8806 75.1548 18.5511 74.848 18.3125C74.5412 18.0738 74.1586 17.9545 73.7003 17.9545C73.2609 17.9545 72.8878 18.07 72.581 18.3011C72.2741 18.5322 72.0412 18.856 71.8821 19.2727C71.7268 19.6893 71.6491 20.1799 71.6491 20.7443ZM83.4261 25.2784C82.5739 25.2784 81.8352 25.0909 81.2102 24.7159C80.5852 24.3409 80.1004 23.8162 79.7557 23.142C79.4148 22.4678 79.2443 21.6799 79.2443 20.7784C79.2443 19.8768 79.4148 19.0871 79.7557 18.409C80.1004 17.731 80.5852 17.2045 81.2102 16.8295C81.8352 16.4545 82.5739 16.267 83.4261 16.267C84.2784 16.267 85.017 16.4545 85.642 16.8295C86.267 17.2045 86.75 17.731 87.0909 18.409C87.4356 19.0871 87.608 19.8768 87.608 20.7784C87.608 21.6799 87.4356 22.4678 87.0909 23.142C86.75 23.8162 86.267 24.3409 85.642 24.7159C85.017 25.0909 84.2784 25.2784 83.4261 25.2784ZM83.4375 23.6306C83.8996 23.6306 84.286 23.5037 84.5966 23.25C84.9072 22.9924 85.1383 22.6477 85.2898 22.2159C85.4451 21.784 85.5227 21.303 85.5227 20.7727C85.5227 20.2386 85.4451 19.7556 85.2898 19.3238C85.1383 18.8882 84.9072 18.5416 84.5966 18.284C84.286 18.0265 83.8996 17.8977 83.4375 17.8977C82.964 17.8977 82.5701 18.0265 82.2557 18.284C81.9451 18.5416 81.7121 18.8882 81.5568 19.3238C81.4053 19.7556 81.3295 20.2386 81.3295 20.7727C81.3295 21.303 81.4053 21.784 81.5568 22.2159C81.7121 22.6477 81.9451 22.9924 82.2557 23.25C82.5701 23.5037 82.964 23.6306 83.4375 23.6306ZM90.7074 16.3806L92.4688 19.6022L94.2585 16.3806H96.4347L93.804 20.7443L96.4801 25.1079H94.3153L92.4688 21.9659L90.6392 25.1079H88.4574L91.1165 20.7443L88.5256 16.3806H90.7074ZM103.58 25.1079H101.33L105.426 13.4715H108.028L112.131 25.1079H109.881L106.773 15.8579H106.682L103.58 25.1079ZM103.653 20.5454H109.79V22.2386H103.653V20.5454ZM113.572 25.1079V16.3806H115.538V17.8636H115.641C115.822 17.3636 116.124 16.9734 116.544 16.6931C116.964 16.409 117.466 16.267 118.05 16.267C118.641 16.267 119.139 16.4109 119.544 16.6988C119.953 16.9829 120.241 17.3712 120.408 17.8636H120.499C120.692 17.3787 121.018 16.9924 121.476 16.7045C121.938 16.4128 122.485 16.267 123.118 16.267C123.921 16.267 124.576 16.5208 125.084 17.0284C125.591 17.5359 125.845 18.2765 125.845 19.25V25.1079H123.783V19.5681C123.783 19.0265 123.639 18.6306 123.351 18.3806C123.063 18.1268 122.711 18 122.294 18C121.798 18 121.41 18.1553 121.129 18.4659C120.853 18.7727 120.714 19.1723 120.714 19.6647V25.1079H118.697V19.4829C118.697 19.0322 118.561 18.6723 118.288 18.4034C118.019 18.1344 117.667 18 117.232 18C116.936 18 116.667 18.0757 116.425 18.2272C116.182 18.375 115.989 18.5852 115.845 18.8579C115.701 19.1268 115.629 19.4412 115.629 19.8011V25.1079H113.572ZM131.795 25.2784C130.92 25.2784 130.165 25.0965 129.528 24.7329C128.896 24.3655 128.409 23.8465 128.068 23.1761C127.727 22.5018 127.557 21.7083 127.557 20.7954C127.557 19.8977 127.727 19.1098 128.068 18.4318C128.413 17.75 128.894 17.2197 129.511 16.8409C130.129 16.4583 130.854 16.267 131.688 16.267C132.225 16.267 132.733 16.3541 133.21 16.5284C133.691 16.6988 134.116 16.964 134.483 17.3238C134.854 17.6837 135.146 18.142 135.358 18.6988C135.57 19.2518 135.676 19.9109 135.676 20.6761V21.3068H128.523V19.9204H133.705C133.701 19.5265 133.616 19.1761 133.449 18.8693C133.282 18.5587 133.049 18.3143 132.75 18.1363C132.455 17.9583 132.11 17.8693 131.716 17.8693C131.295 17.8693 130.926 17.9715 130.608 18.1761C130.29 18.3768 130.042 18.642 129.864 18.9715C129.689 19.2973 129.6 19.6553 129.597 20.0454V21.2556C129.597 21.7632 129.689 22.1988 129.875 22.5625C130.061 22.9223 130.32 23.1988 130.653 23.392C130.987 23.5814 131.377 23.6761 131.824 23.6761C132.123 23.6761 132.394 23.6344 132.636 23.5511C132.879 23.464 133.089 23.3371 133.267 23.1704C133.445 23.0037 133.58 22.7973 133.67 22.5511L135.591 22.767C135.47 23.2746 135.239 23.7178 134.898 24.0965C134.561 24.4715 134.129 24.7632 133.602 24.9715C133.076 25.1761 132.473 25.2784 131.795 25.2784ZM137.416 25.1079V16.3806H139.411V17.8352H139.501C139.661 17.3314 139.933 16.9431 140.32 16.6704C140.71 16.3939 141.155 16.2556 141.655 16.2556C141.768 16.2556 141.895 16.2613 142.036 16.2727C142.179 16.2803 142.299 16.2935 142.393 16.3125V18.2045C142.306 18.1742 142.168 18.1477 141.979 18.125C141.793 18.0984 141.613 18.0852 141.439 18.0852C141.064 18.0852 140.727 18.1666 140.428 18.3295C140.132 18.4886 139.899 18.7102 139.729 18.9943C139.558 19.2784 139.473 19.606 139.473 19.9772V25.1079H137.416ZM143.76 25.1079V16.3806H145.817V25.1079H143.76ZM144.794 15.142C144.468 15.142 144.188 15.034 143.953 14.8181C143.718 14.5984 143.601 14.3352 143.601 14.0284C143.601 13.7178 143.718 13.4545 143.953 13.2386C144.188 13.0189 144.468 12.909 144.794 12.909C145.124 12.909 145.404 13.0189 145.635 13.2386C145.87 13.4545 145.987 13.7178 145.987 14.0284C145.987 14.3352 145.87 14.5984 145.635 14.8181C145.404 15.034 145.124 15.142 144.794 15.142ZM151.739 25.2784C150.867 25.2784 150.119 25.0871 149.494 24.7045C148.873 24.3219 148.394 23.7935 148.057 23.1193C147.723 22.4412 147.557 21.6609 147.557 20.7784C147.557 19.892 147.727 19.1098 148.068 18.4318C148.409 17.75 148.89 17.2197 149.511 16.8409C150.136 16.4583 150.875 16.267 151.727 16.267C152.436 16.267 153.063 16.3977 153.608 16.659C154.157 16.9166 154.595 17.2822 154.92 17.7556C155.246 18.2253 155.432 18.7746 155.477 19.4034H153.511C153.432 18.9829 153.242 18.6325 152.943 18.3522C152.648 18.0681 152.252 17.9261 151.756 17.9261C151.335 17.9261 150.966 18.0397 150.648 18.267C150.33 18.4905 150.081 18.8125 149.903 19.2329C149.729 19.6534 149.642 20.1572 149.642 20.7443C149.642 21.339 149.729 21.8503 149.903 22.2784C150.078 22.7026 150.322 23.0303 150.636 23.2613C150.955 23.4886 151.328 23.6022 151.756 23.6022C152.059 23.6022 152.33 23.5454 152.568 23.4318C152.811 23.3143 153.013 23.1458 153.176 22.9261C153.339 22.7064 153.451 22.4393 153.511 22.125H155.477C155.428 22.7424 155.246 23.2897 154.932 23.767C154.617 24.2405 154.189 24.6117 153.648 24.8806C153.106 25.1458 152.47 25.2784 151.739 25.2784ZM159.678 25.284C159.125 25.284 158.626 25.1856 158.183 24.9886C157.744 24.7878 157.395 24.4924 157.138 24.1022C156.884 23.7121 156.757 23.231 156.757 22.659C156.757 22.1666 156.848 21.7594 157.03 21.4375C157.212 21.1155 157.46 20.8579 157.774 20.6647C158.089 20.4715 158.443 20.3257 158.837 20.2272C159.234 20.125 159.645 20.0511 160.07 20.0056C160.581 19.9526 160.996 19.9053 161.314 19.8636C161.632 19.8181 161.863 19.75 162.007 19.659C162.155 19.5643 162.229 19.4185 162.229 19.2215V19.1875C162.229 18.7594 162.102 18.428 161.848 18.1931C161.594 17.9583 161.229 17.8409 160.751 17.8409C160.248 17.8409 159.848 17.9507 159.553 18.1704C159.261 18.3901 159.064 18.6496 158.962 18.9488L157.041 18.6761C157.193 18.1458 157.443 17.7026 157.791 17.3465C158.14 16.9867 158.566 16.7178 159.07 16.5397C159.573 16.3579 160.13 16.267 160.74 16.267C161.161 16.267 161.579 16.3162 161.996 16.4147C162.412 16.5132 162.793 16.6761 163.138 16.9034C163.482 17.1268 163.759 17.4318 163.967 17.8181C164.179 18.2045 164.286 18.6875 164.286 19.267V25.1079H162.308V23.909H162.24C162.115 24.1515 161.939 24.3787 161.712 24.5909C161.488 24.7992 161.206 24.9678 160.865 25.0965C160.528 25.2215 160.132 25.284 159.678 25.284ZM160.212 23.7727C160.625 23.7727 160.982 23.6912 161.286 23.5284C161.589 23.3617 161.821 23.142 161.984 22.8693C162.151 22.5965 162.234 22.2992 162.234 21.9772V20.9488C162.17 21.0018 162.06 21.0511 161.905 21.0965C161.753 21.142 161.583 21.1818 161.393 21.2159C161.204 21.25 161.017 21.2803 160.831 21.3068C160.645 21.3333 160.484 21.356 160.348 21.375C160.041 21.4166 159.767 21.4848 159.524 21.5795C159.282 21.6742 159.09 21.8068 158.95 21.9772C158.81 22.1439 158.74 22.3598 158.74 22.625C158.74 23.0037 158.878 23.2897 159.155 23.4829C159.431 23.6761 159.784 23.7727 160.212 23.7727ZM168.411 19.9943V25.1079H166.354V16.3806H168.32V17.8636H168.422C168.623 17.375 168.943 16.9867 169.382 16.6988C169.825 16.4109 170.373 16.267 171.024 16.267C171.626 16.267 172.151 16.3958 172.598 16.6534C173.049 16.9109 173.397 17.284 173.643 17.7727C173.893 18.2613 174.017 18.8541 174.013 19.5511V25.1079H171.956V19.8693C171.956 19.2859 171.804 18.8295 171.501 18.5C171.202 18.1704 170.787 18.0056 170.257 18.0056C169.897 18.0056 169.577 18.0852 169.297 18.2443C169.02 18.3996 168.803 18.625 168.643 18.9204C168.488 19.2159 168.411 19.5738 168.411 19.9943ZM182.271 13.4715V25.1079H180.163V13.4715H182.271ZM186.52 19.9943V25.1079H184.463V16.3806H186.429V17.8636H186.531C186.732 17.375 187.052 16.9867 187.491 16.6988C187.935 16.4109 188.482 16.267 189.134 16.267C189.736 16.267 190.26 16.3958 190.707 16.6534C191.158 16.9109 191.507 17.284 191.753 17.7727C192.003 18.2613 192.126 18.8541 192.122 19.5511V25.1079H190.065V19.8693C190.065 19.2859 189.914 18.8295 189.611 18.5C189.312 18.1704 188.897 18.0056 188.366 18.0056C188.007 18.0056 187.687 18.0852 187.406 18.2443C187.13 18.3996 186.912 18.625 186.753 18.9204C186.598 19.2159 186.52 19.5738 186.52 19.9943ZM201.111 18.6875L199.236 18.892C199.183 18.7026 199.09 18.5246 198.957 18.3579C198.829 18.1912 198.654 18.0568 198.435 17.9545C198.215 17.8522 197.946 17.8011 197.628 17.8011C197.2 17.8011 196.84 17.8939 196.548 18.0795C196.26 18.2651 196.118 18.5056 196.122 18.8011C196.118 19.0549 196.211 19.2613 196.401 19.4204C196.594 19.5795 196.912 19.7102 197.355 19.8125L198.844 20.1306C199.67 20.3087 200.283 20.5909 200.685 20.9772C201.09 21.3636 201.295 21.8693 201.298 22.4943C201.295 23.0435 201.134 23.5284 200.815 23.9488C200.501 24.3655 200.063 24.6912 199.503 24.9261C198.942 25.1609 198.298 25.2784 197.571 25.2784C196.503 25.2784 195.643 25.0549 194.991 24.6079C194.34 24.1572 193.952 23.5303 193.827 22.7272L195.832 22.534C195.923 22.928 196.116 23.2253 196.412 23.4261C196.707 23.6268 197.092 23.7272 197.565 23.7272C198.054 23.7272 198.446 23.6268 198.741 23.4261C199.041 23.2253 199.19 22.9772 199.19 22.6818C199.19 22.4318 199.094 22.2253 198.901 22.0625C198.711 21.8996 198.416 21.7746 198.014 21.6875L196.526 21.375C195.688 21.2007 195.069 20.9072 194.668 20.4943C194.266 20.0776 194.067 19.5511 194.071 18.9147C194.067 18.3768 194.213 17.9109 194.509 17.517C194.808 17.1193 195.223 16.8125 195.753 16.5965C196.287 16.3768 196.902 16.267 197.599 16.267C198.622 16.267 199.427 16.4848 200.014 16.9204C200.605 17.356 200.971 17.945 201.111 18.6875ZM207.352 16.3806V17.9715H202.335V16.3806H207.352ZM203.574 14.2897H205.631V22.4829C205.631 22.7594 205.672 22.9715 205.756 23.1193C205.843 23.2632 205.956 23.3617 206.097 23.4147C206.237 23.4678 206.392 23.4943 206.562 23.4943C206.691 23.4943 206.809 23.4848 206.915 23.4659C207.025 23.4469 207.108 23.4299 207.165 23.4147L207.511 25.0227C207.402 25.0606 207.244 25.1022 207.04 25.1477C206.839 25.1931 206.593 25.2197 206.301 25.2272C205.786 25.2424 205.322 25.1647 204.909 24.9943C204.496 24.82 204.169 24.5511 203.926 24.1875C203.688 23.8238 203.57 23.3693 203.574 22.8238V14.2897ZM209.072 25.1079V16.3806H211.129V25.1079H209.072ZM210.107 15.142C209.781 15.142 209.5 15.034 209.266 14.8181C209.031 14.5984 208.913 14.3352 208.913 14.0284C208.913 13.7178 209.031 13.4545 209.266 13.2386C209.5 13.0189 209.781 12.909 210.107 12.909C210.436 12.909 210.716 13.0189 210.947 13.2386C211.182 13.4545 211.3 13.7178 211.3 14.0284C211.3 14.3352 211.182 14.5984 210.947 14.8181C210.716 15.034 210.436 15.142 210.107 15.142ZM217.602 16.3806V17.9715H212.585V16.3806H217.602ZM213.824 14.2897H215.881V22.4829C215.881 22.7594 215.922 22.9715 216.006 23.1193C216.093 23.2632 216.206 23.3617 216.347 23.4147C216.487 23.4678 216.642 23.4943 216.812 23.4943C216.941 23.4943 217.059 23.4848 217.165 23.4659C217.275 23.4469 217.358 23.4299 217.415 23.4147L217.761 25.0227C217.652 25.0606 217.494 25.1022 217.29 25.1477C217.089 25.1931 216.843 25.2197 216.551 25.2272C216.036 25.2424 215.572 25.1647 215.159 24.9943C214.746 24.82 214.419 24.5511 214.176 24.1875C213.938 23.8238 213.82 23.3693 213.824 22.8238V14.2897ZM224.885 21.4375V16.3806H226.942V25.1079H224.947V23.5568H224.857C224.66 24.0454 224.336 24.445 223.885 24.7556C223.438 25.0662 222.887 25.2215 222.232 25.2215C221.66 25.2215 221.154 25.0947 220.714 24.8409C220.279 24.5833 219.938 24.2102 219.692 23.7215C219.446 23.2291 219.322 22.6344 219.322 21.9375V16.3806H221.379V21.6193C221.379 22.1723 221.531 22.6117 221.834 22.9375C222.137 23.2632 222.535 23.4261 223.027 23.4261C223.33 23.4261 223.624 23.3522 223.908 23.2045C224.192 23.0568 224.425 22.8371 224.607 22.5454C224.792 22.25 224.885 21.8806 224.885 21.4375ZM233.415 16.3806V17.9715H228.398V16.3806H233.415ZM229.636 14.2897H231.693V22.4829C231.693 22.7594 231.735 22.9715 231.818 23.1193C231.905 23.2632 232.019 23.3617 232.159 23.4147C232.299 23.4678 232.455 23.4943 232.625 23.4943C232.754 23.4943 232.871 23.4848 232.977 23.4659C233.087 23.4469 233.17 23.4299 233.227 23.4147L233.574 25.0227C233.464 25.0606 233.307 25.1022 233.102 25.1477C232.902 25.1931 232.655 25.2197 232.364 25.2272C231.848 25.2424 231.384 25.1647 230.972 24.9943C230.559 24.82 230.231 24.5511 229.989 24.1875C229.75 23.8238 229.633 23.3693 229.636 22.8238V14.2897ZM238.905 25.2784C238.03 25.2784 237.274 25.0965 236.638 24.7329C236.005 24.3655 235.518 23.8465 235.178 23.1761C234.837 22.5018 234.666 21.7083 234.666 20.7954C234.666 19.8977 234.837 19.1098 235.178 18.4318C235.522 17.75 236.003 17.2197 236.621 16.8409C237.238 16.4583 237.964 16.267 238.797 16.267C239.335 16.267 239.842 16.3541 240.32 16.5284C240.801 16.6988 241.225 16.964 241.592 17.3238C241.964 17.6837 242.255 18.142 242.467 18.6988C242.679 19.2518 242.786 19.9109 242.786 20.6761V21.3068H235.632V19.9204H240.814C240.81 19.5265 240.725 19.1761 240.558 18.8693C240.392 18.5587 240.159 18.3143 239.859 18.1363C239.564 17.9583 239.219 17.8693 238.825 17.8693C238.405 17.8693 238.036 17.9715 237.717 18.1761C237.399 18.3768 237.151 18.642 236.973 18.9715C236.799 19.2973 236.71 19.6553 236.706 20.0454V21.2556C236.706 21.7632 236.799 22.1988 236.984 22.5625C237.17 22.9223 237.429 23.1988 237.763 23.392C238.096 23.5814 238.486 23.6761 238.933 23.6761C239.232 23.6761 239.503 23.6344 239.746 23.5511C239.988 23.464 240.198 23.3371 240.376 23.1704C240.554 23.0037 240.689 22.7973 240.78 22.5511L242.7 22.767C242.579 23.2746 242.348 23.7178 242.007 24.0965C241.67 24.4715 241.238 24.7632 240.712 24.9715C240.185 25.1761 239.583 25.2784 238.905 25.2784Z" fill="#243883"/>
</svg>
