<svg width="288" height="59" viewBox="0 0 288 59" fill="none" xmlns="http://www.w3.org/2000/svg">
<path d="M33.3216 58.2829L16.5297 48.6517V29.2725L33.3216 39.0614V58.2829Z" fill="#243883"/>
<path d="M33.4691 0L50.3234 9.98751V29.2487L33.3216 19.4473L33.4691 0Z" fill="#243883"/>
<path d="M33.2864 19.4292L16.8826 9.97168L0 19.84L16.5626 29.3997L33.2376 19.4621C33.2524 19.4497 33.2694 19.4394 33.2864 19.4292Z" fill="#243883"/>
<path d="M50.2474 29.1931L33.3942 39.1L50.0102 48.6904L66.5365 38.5848L50.2474 29.1931Z" fill="#243883"/>
<path d="M85.0195 23.0052H87.1274V30.6075C87.1274 31.4408 86.9304 32.1738 86.5365 32.8064C86.1463 33.4389 85.5971 33.9333 84.8888 34.2893C84.1804 34.6416 83.3528 34.8177 82.4058 34.8177C81.4551 34.8177 80.6255 34.6416 79.9172 34.2893C79.2088 33.9333 78.6596 33.4389 78.2695 32.8064C77.8793 32.1738 77.6842 31.4408 77.6842 30.6075V23.0052H79.7922V30.4314C79.7922 30.9162 79.8982 31.348 80.1104 31.7268C80.3263 32.1056 80.6293 32.403 81.0195 32.6189C81.4096 32.831 81.8717 32.9371 82.4058 32.9371C82.9399 32.9371 83.402 32.831 83.7922 32.6189C84.1861 32.403 84.4892 32.1056 84.7013 31.7268C84.9134 31.348 85.0195 30.9162 85.0195 30.4314V23.0052ZM91.3845 29.528V34.6416H89.3277V25.9143H91.2936V27.3973H91.3959C91.5966 26.9086 91.9167 26.5204 92.3561 26.2325C92.7993 25.9446 93.3466 25.8007 93.9981 25.8007C94.6004 25.8007 95.125 25.9295 95.572 26.1871C96.0228 26.4446 96.3713 26.8177 96.6175 27.3064C96.8675 27.795 96.9906 28.3878 96.9868 29.0848V34.6416H94.93V29.403C94.93 28.8196 94.7784 28.3632 94.4754 28.0336C94.1762 27.7041 93.7614 27.5393 93.2311 27.5393C92.8713 27.5393 92.5512 27.6189 92.2709 27.778C91.9944 27.9333 91.7766 28.1586 91.6175 28.4541C91.4622 28.7496 91.3845 29.1075 91.3845 29.528ZM99.1686 34.6416V23.0052H101.225V27.3575H101.311C101.417 27.1454 101.566 26.92 101.76 26.6814C101.953 26.4389 102.214 26.2325 102.544 26.0621C102.873 25.8878 103.294 25.8007 103.805 25.8007C104.479 25.8007 105.087 25.973 105.629 26.3177C106.174 26.6586 106.606 27.1643 106.924 27.8348C107.246 28.5014 107.407 29.3196 107.407 30.2893C107.407 31.2477 107.25 32.0621 106.936 32.7325C106.621 33.403 106.193 33.9143 105.652 34.2666C105.11 34.6189 104.496 34.795 103.811 34.795C103.311 34.795 102.896 34.7117 102.566 34.545C102.237 34.3783 101.972 34.1776 101.771 33.9427C101.574 33.7041 101.42 33.4787 101.311 33.2666H101.191V34.6416H99.1686ZM101.186 30.278C101.186 30.8424 101.265 31.3367 101.424 31.7609C101.587 32.1852 101.82 32.5166 102.123 32.7552C102.43 32.9901 102.801 33.1075 103.237 33.1075C103.691 33.1075 104.072 32.9863 104.379 32.7439C104.686 32.4977 104.917 32.1624 105.072 31.7382C105.231 31.3102 105.311 30.8234 105.311 30.278C105.311 29.7363 105.233 29.2552 105.078 28.8348C104.922 28.4143 104.691 28.0848 104.385 27.8461C104.078 27.6075 103.695 27.4882 103.237 27.4882C102.797 27.4882 102.424 27.6037 102.117 27.8348C101.811 28.0658 101.578 28.3897 101.419 28.8064C101.263 29.223 101.186 29.7136 101.186 30.278ZM112.963 34.8121C112.11 34.8121 111.372 34.6246 110.747 34.2496C110.122 33.8746 109.637 33.3499 109.292 32.6757C108.951 32.0015 108.781 31.2136 108.781 30.3121C108.781 29.4105 108.951 28.6208 109.292 27.9427C109.637 27.2647 110.122 26.7382 110.747 26.3632C111.372 25.9882 112.11 25.8007 112.963 25.8007C113.815 25.8007 114.554 25.9882 115.179 26.3632C115.804 26.7382 116.286 27.2647 116.627 27.9427C116.972 28.6208 117.144 29.4105 117.144 30.3121C117.144 31.2136 116.972 32.0015 116.627 32.6757C116.286 33.3499 115.804 33.8746 115.179 34.2496C114.554 34.6246 113.815 34.8121 112.963 34.8121ZM112.974 33.1643C113.436 33.1643 113.822 33.0374 114.133 32.7836C114.444 32.5261 114.675 32.1814 114.826 31.7496C114.982 31.3177 115.059 30.8367 115.059 30.3064C115.059 29.7723 114.982 29.2893 114.826 28.8575C114.675 28.4219 114.444 28.0753 114.133 27.8177C113.822 27.5602 113.436 27.4314 112.974 27.4314C112.501 27.4314 112.107 27.5602 111.792 27.8177C111.482 28.0753 111.249 28.4219 111.093 28.8575C110.942 29.2893 110.866 29.7723 110.866 30.3064C110.866 30.8367 110.942 31.3177 111.093 31.7496C111.249 32.1814 111.482 32.5261 111.792 32.7836C112.107 33.0374 112.501 33.1643 112.974 33.1643ZM120.244 25.9143L122.005 29.1359L123.795 25.9143H125.971L123.34 30.278L126.017 34.6416H123.852L122.005 31.4996L120.176 34.6416H117.994L120.653 30.278L118.062 25.9143H120.244ZM133.116 34.6416H130.866L134.963 23.0052H137.565L141.667 34.6416H139.417L136.309 25.3916H136.218L133.116 34.6416ZM133.19 30.0791H139.326V31.7723H133.19V30.0791ZM143.109 34.6416V25.9143H145.075V27.3973H145.177C145.359 26.8973 145.66 26.5071 146.081 26.2268C146.501 25.9427 147.003 25.8007 147.586 25.8007C148.177 25.8007 148.675 25.9446 149.081 26.2325C149.49 26.5166 149.778 26.9049 149.944 27.3973H150.035C150.228 26.9124 150.554 26.5261 151.012 26.2382C151.474 25.9465 152.022 25.8007 152.654 25.8007C153.457 25.8007 154.113 26.0545 154.62 26.5621C155.128 27.0696 155.382 27.8102 155.382 28.7836V34.6416H153.319V29.1018C153.319 28.5602 153.175 28.1643 152.887 27.9143C152.599 27.6605 152.247 27.5336 151.831 27.5336C151.334 27.5336 150.946 27.6889 150.666 27.9996C150.389 28.3064 150.251 28.706 150.251 29.1984V34.6416H148.234V29.0166C148.234 28.5658 148.098 28.206 147.825 27.9371C147.556 27.6681 147.204 27.5336 146.768 27.5336C146.473 27.5336 146.204 27.6094 145.961 27.7609C145.719 27.9086 145.526 28.1189 145.382 28.3916C145.238 28.6605 145.166 28.9749 145.166 29.3348V34.6416H143.109ZM161.332 34.8121C160.457 34.8121 159.701 34.6302 159.065 34.2666C158.432 33.8992 157.946 33.3802 157.605 32.7098C157.264 32.0355 157.093 31.242 157.093 30.3291C157.093 29.4314 157.264 28.6435 157.605 27.9655C157.949 27.2836 158.43 26.7533 159.048 26.3746C159.665 25.992 160.391 25.8007 161.224 25.8007C161.762 25.8007 162.269 25.8878 162.747 26.0621C163.228 26.2325 163.652 26.4977 164.019 26.8575C164.391 27.2174 164.682 27.6757 164.894 28.2325C165.107 28.7855 165.213 29.4446 165.213 30.2098V30.8405H158.059V29.4541H163.241C163.237 29.0602 163.152 28.7098 162.985 28.403C162.819 28.0924 162.586 27.848 162.286 27.67C161.991 27.492 161.646 27.403 161.252 27.403C160.832 27.403 160.463 27.5052 160.144 27.7098C159.826 27.9105 159.578 28.1757 159.4 28.5052C159.226 28.831 159.137 29.1889 159.133 29.5791V30.7893C159.133 31.2969 159.226 31.7325 159.411 32.0961C159.597 32.456 159.857 32.7325 160.19 32.9257C160.523 33.1151 160.913 33.2098 161.36 33.2098C161.66 33.2098 161.93 33.1681 162.173 33.0848C162.415 32.9977 162.626 32.8708 162.804 32.7041C162.982 32.5374 163.116 32.331 163.207 32.0848L165.127 32.3007C165.006 32.8083 164.775 33.2515 164.434 33.6302C164.097 34.0052 163.665 34.2969 163.139 34.5052C162.612 34.7098 162.01 34.8121 161.332 34.8121ZM166.953 34.6416V25.9143H168.947V27.3689H169.038C169.197 26.8651 169.47 26.4768 169.856 26.2041C170.246 25.9276 170.691 25.7893 171.191 25.7893C171.305 25.7893 171.432 25.795 171.572 25.8064C171.716 25.8139 171.835 25.8272 171.93 25.8461V27.7382C171.843 27.7079 171.705 27.6814 171.515 27.6586C171.33 27.6321 171.15 27.6189 170.975 27.6189C170.6 27.6189 170.263 27.7003 169.964 27.8632C169.669 28.0223 169.436 28.2439 169.265 28.528C169.095 28.8121 169.01 29.1397 169.01 29.5109V34.6416H166.953ZM173.296 34.6416V25.9143H175.353V34.6416H173.296ZM174.331 24.6757C174.005 24.6757 173.724 24.5677 173.49 24.3518C173.255 24.1321 173.137 23.8689 173.137 23.5621C173.137 23.2514 173.255 22.9882 173.49 22.7723C173.724 22.5526 174.005 22.4427 174.331 22.4427C174.66 22.4427 174.94 22.5526 175.171 22.7723C175.406 22.9882 175.524 23.2514 175.524 23.5621C175.524 23.8689 175.406 24.1321 175.171 24.3518C174.94 24.5677 174.66 24.6757 174.331 24.6757ZM181.275 34.8121C180.404 34.8121 179.656 34.6208 179.031 34.2382C178.41 33.8556 177.93 33.3272 177.593 32.653C177.26 31.9749 177.093 31.1946 177.093 30.3121C177.093 29.4257 177.264 28.6435 177.605 27.9655C177.946 27.2836 178.427 26.7533 179.048 26.3746C179.673 25.992 180.411 25.8007 181.264 25.8007C181.972 25.8007 182.599 25.9314 183.144 26.1927C183.694 26.4503 184.131 26.8158 184.457 27.2893C184.783 27.759 184.968 28.3083 185.014 28.9371H183.048C182.968 28.5166 182.779 28.1662 182.48 27.8859C182.184 27.6018 181.788 27.4598 181.292 27.4598C180.872 27.4598 180.502 27.5734 180.184 27.8007C179.866 28.0242 179.618 28.3461 179.44 28.7666C179.266 29.1871 179.179 29.6908 179.179 30.278C179.179 30.8727 179.266 31.384 179.44 31.8121C179.614 32.2363 179.858 32.5639 180.173 32.795C180.491 33.0223 180.864 33.1359 181.292 33.1359C181.595 33.1359 181.866 33.0791 182.105 32.9655C182.347 32.848 182.55 32.6795 182.713 32.4598C182.876 32.2401 182.987 31.973 183.048 31.6586H185.014C184.965 32.2761 184.783 32.8234 184.468 33.3007C184.154 33.7742 183.726 34.1454 183.184 34.4143C182.643 34.6795 182.006 34.8121 181.275 34.8121ZM189.214 34.8177C188.661 34.8177 188.163 34.7193 187.72 34.5223C187.28 34.3215 186.932 34.0261 186.674 33.6359C186.42 33.2458 186.294 32.7647 186.294 32.1927C186.294 31.7003 186.385 31.2931 186.566 30.9711C186.748 30.6492 186.996 30.3916 187.311 30.1984C187.625 30.0052 187.979 29.8594 188.373 29.7609C188.771 29.6586 189.182 29.5848 189.606 29.5393C190.117 29.4863 190.532 29.4389 190.85 29.3973C191.169 29.3518 191.4 29.2836 191.544 29.1927C191.691 29.098 191.765 28.9522 191.765 28.7552V28.7211C191.765 28.2931 191.638 27.9617 191.385 27.7268C191.131 27.492 190.765 27.3746 190.288 27.3746C189.784 27.3746 189.385 27.4844 189.089 27.7041C188.797 27.9238 188.6 28.1833 188.498 28.4825L186.578 28.2098C186.729 27.6795 186.979 27.2363 187.328 26.8802C187.676 26.5204 188.102 26.2514 188.606 26.0734C189.11 25.8916 189.667 25.8007 190.277 25.8007C190.697 25.8007 191.116 25.8499 191.532 25.9484C191.949 26.0469 192.33 26.2098 192.674 26.4371C193.019 26.6605 193.295 26.9655 193.504 27.3518C193.716 27.7382 193.822 28.2211 193.822 28.8007V34.6416H191.845V33.4427H191.777C191.652 33.6852 191.475 33.9124 191.248 34.1246C191.025 34.3329 190.742 34.5015 190.402 34.6302C190.064 34.7552 189.669 34.8177 189.214 34.8177ZM189.748 33.3064C190.161 33.3064 190.519 33.2249 190.822 33.0621C191.125 32.8954 191.358 32.6757 191.521 32.403C191.688 32.1302 191.771 31.8329 191.771 31.5109V30.4825C191.706 30.5355 191.597 30.5848 191.441 30.6302C191.29 30.6757 191.119 30.7155 190.93 30.7496C190.741 30.7836 190.553 30.8139 190.367 30.8405C190.182 30.867 190.021 30.8897 189.885 30.9086C189.578 30.9503 189.303 31.0185 189.061 31.1132C188.818 31.2079 188.627 31.3405 188.487 31.5109C188.347 31.6776 188.277 31.8935 188.277 32.1586C188.277 32.5374 188.415 32.8234 188.691 33.0166C188.968 33.2098 189.32 33.3064 189.748 33.3064ZM197.947 29.528V34.6416H195.89V25.9143H197.856V27.3973H197.958C198.159 26.9086 198.479 26.5204 198.919 26.2325C199.362 25.9446 199.909 25.8007 200.561 25.8007C201.163 25.8007 201.688 25.9295 202.135 26.1871C202.585 26.4446 202.934 26.8177 203.18 27.3064C203.43 27.795 203.553 28.3878 203.549 29.0848V34.6416H201.492V29.403C201.492 28.8196 201.341 28.3632 201.038 28.0336C200.739 27.7041 200.324 27.5393 199.794 27.5393C199.434 27.5393 199.114 27.6189 198.833 27.778C198.557 27.9333 198.339 28.1586 198.18 28.4541C198.025 28.7496 197.947 29.1075 197.947 29.528ZM211.808 23.0052V34.6416H209.7V23.0052H211.808ZM216.056 29.528V34.6416H214V25.9143H215.965V27.3973H216.068C216.269 26.9086 216.589 26.5204 217.028 26.2325C217.471 25.9446 218.019 25.8007 218.67 25.8007C219.272 25.8007 219.797 25.9295 220.244 26.1871C220.695 26.4446 221.043 26.8177 221.289 27.3064C221.539 27.795 221.662 28.3878 221.659 29.0848V34.6416H219.602V29.403C219.602 28.8196 219.45 28.3632 219.147 28.0336C218.848 27.7041 218.433 27.5393 217.903 27.5393C217.543 27.5393 217.223 27.6189 216.943 27.778C216.666 27.9333 216.448 28.1586 216.289 28.4541C216.134 28.7496 216.056 29.1075 216.056 29.528ZM230.647 28.2211L228.772 28.4257C228.719 28.2363 228.626 28.0583 228.494 27.8916C228.365 27.7249 228.191 27.5905 227.971 27.4882C227.751 27.3859 227.483 27.3348 227.164 27.3348C226.736 27.3348 226.376 27.4276 226.085 27.6132C225.797 27.7988 225.655 28.0393 225.659 28.3348C225.655 28.5886 225.748 28.795 225.937 28.9541C226.13 29.1132 226.448 29.2439 226.892 29.3461L228.38 29.6643C229.206 29.8424 229.82 30.1246 230.221 30.5109C230.626 30.8973 230.831 31.403 230.835 32.028C230.831 32.5772 230.67 33.0621 230.352 33.4825C230.037 33.8992 229.6 34.2249 229.039 34.4598C228.479 34.6946 227.835 34.8121 227.108 34.8121C226.039 34.8121 225.179 34.5886 224.528 34.1416C223.876 33.6908 223.488 33.0639 223.363 32.2609L225.369 32.0677C225.46 32.4617 225.653 32.759 225.948 32.9598C226.244 33.1605 226.628 33.2609 227.102 33.2609C227.59 33.2609 227.983 33.1605 228.278 32.9598C228.577 32.759 228.727 32.5109 228.727 32.2155C228.727 31.9655 228.63 31.759 228.437 31.5961C228.248 31.4333 227.952 31.3083 227.551 31.2211L226.062 30.9086C225.225 30.7344 224.606 30.4408 224.204 30.028C223.803 29.6113 223.604 29.0848 223.608 28.4484C223.604 27.9105 223.75 27.4446 224.045 27.0507C224.344 26.653 224.759 26.3461 225.289 26.1302C225.823 25.9105 226.439 25.8007 227.136 25.8007C228.159 25.8007 228.964 26.0185 229.551 26.4541C230.142 26.8897 230.507 27.4787 230.647 28.2211ZM236.889 25.9143V27.5052H231.872V25.9143H236.889ZM233.11 23.8234H235.167V32.0166C235.167 32.2931 235.209 32.5052 235.292 32.653C235.379 32.7969 235.493 32.8954 235.633 32.9484C235.773 33.0015 235.929 33.028 236.099 33.028C236.228 33.028 236.345 33.0185 236.451 32.9996C236.561 32.9806 236.644 32.9636 236.701 32.9484L237.048 34.5564C236.938 34.5943 236.781 34.6359 236.576 34.6814C236.376 34.7268 236.129 34.7533 235.838 34.7609C235.322 34.7761 234.858 34.6984 234.446 34.528C234.033 34.3537 233.705 34.0848 233.463 33.7211C233.224 33.3575 233.107 32.903 233.11 32.3575V23.8234ZM238.609 34.6416V25.9143H240.666V34.6416H238.609ZM239.643 24.6757C239.317 24.6757 239.037 24.5677 238.802 24.3518C238.567 24.1321 238.45 23.8689 238.45 23.5621C238.45 23.2514 238.567 22.9882 238.802 22.7723C239.037 22.5526 239.317 22.4427 239.643 22.4427C239.973 22.4427 240.253 22.5526 240.484 22.7723C240.719 22.9882 240.836 23.2514 240.836 23.5621C240.836 23.8689 240.719 24.1321 240.484 24.3518C240.253 24.5677 239.973 24.6757 239.643 24.6757ZM247.139 25.9143V27.5052H242.122V25.9143H247.139ZM243.36 23.8234H245.417V32.0166C245.417 32.2931 245.459 32.5052 245.542 32.653C245.629 32.7969 245.743 32.8954 245.883 32.9484C246.023 33.0015 246.179 33.028 246.349 33.028C246.478 33.028 246.595 33.0185 246.701 32.9996C246.811 32.9806 246.894 32.9636 246.951 32.9484L247.298 34.5564C247.188 34.5943 247.031 34.6359 246.826 34.6814C246.626 34.7268 246.379 34.7533 246.088 34.7609C245.572 34.7761 245.108 34.6984 244.696 34.528C244.283 34.3537 243.955 34.0848 243.713 33.7211C243.474 33.3575 243.357 32.903 243.36 32.3575V23.8234ZM254.421 30.9711V25.9143H256.478V34.6416H254.484V33.0905H254.393C254.196 33.5791 253.872 33.9787 253.421 34.2893C252.974 34.5999 252.423 34.7552 251.768 34.7552C251.196 34.7552 250.69 34.6283 250.251 34.3746C249.815 34.117 249.474 33.7439 249.228 33.2552C248.982 32.7628 248.859 32.1681 248.859 31.4711V25.9143H250.916V31.153C250.916 31.706 251.067 32.1454 251.37 32.4711C251.673 32.7969 252.071 32.9598 252.563 32.9598C252.867 32.9598 253.16 32.8859 253.444 32.7382C253.728 32.5905 253.961 32.3708 254.143 32.0791C254.329 31.7836 254.421 31.4143 254.421 30.9711ZM262.951 25.9143V27.5052H257.934V25.9143H262.951ZM259.173 23.8234H261.23V32.0166C261.23 32.2931 261.271 32.5052 261.355 32.653C261.442 32.7969 261.555 32.8954 261.696 32.9484C261.836 33.0015 261.991 33.028 262.161 33.028C262.29 33.028 262.408 33.0185 262.514 32.9996C262.624 32.9806 262.707 32.9636 262.764 32.9484L263.11 34.5564C263.001 34.5943 262.843 34.6359 262.639 34.6814C262.438 34.7268 262.192 34.7533 261.9 34.7609C261.385 34.7761 260.921 34.6984 260.508 34.528C260.095 34.3537 259.768 34.0848 259.525 33.7211C259.286 33.3575 259.169 32.903 259.173 32.3575V23.8234ZM268.441 34.8121C267.566 34.8121 266.811 34.6302 266.174 34.2666C265.542 33.8992 265.055 33.3802 264.714 32.7098C264.373 32.0355 264.203 31.242 264.203 30.3291C264.203 29.4314 264.373 28.6435 264.714 27.9655C265.059 27.2836 265.54 26.7533 266.157 26.3746C266.775 25.992 267.5 25.8007 268.333 25.8007C268.871 25.8007 269.379 25.8878 269.856 26.0621C270.337 26.2325 270.761 26.4977 271.129 26.8575C271.5 27.2174 271.792 27.6757 272.004 28.2325C272.216 28.7855 272.322 29.4446 272.322 30.2098V30.8405H265.169V29.4541H270.35C270.347 29.0602 270.261 28.7098 270.095 28.403C269.928 28.0924 269.695 27.848 269.396 27.67C269.1 27.492 268.756 27.403 268.362 27.403C267.941 27.403 267.572 27.5052 267.254 27.7098C266.936 27.9105 266.688 28.1757 266.51 28.5052C266.335 28.831 266.246 29.1889 266.242 29.5791V30.7893C266.242 31.2969 266.335 31.7325 266.521 32.0961C266.706 32.456 266.966 32.7325 267.299 32.9257C267.633 33.1151 268.023 33.2098 268.47 33.2098C268.769 33.2098 269.04 33.1681 269.282 33.0848C269.525 32.9977 269.735 32.8708 269.913 32.7041C270.091 32.5374 270.225 32.331 270.316 32.0848L272.237 32.3007C272.116 32.8083 271.885 33.2515 271.544 33.6302C271.206 34.0052 270.775 34.2969 270.248 34.5052C269.722 34.7098 269.119 34.8121 268.441 34.8121Z" fill="#243883"/>
</svg>
