<svg width="40" height="40" viewBox="0 0 40 40" fill="none" xmlns="http://www.w3.org/2000/svg">
<rect width="40" height="40" rx="20" fill="white"/>
<path d="M12.5 27.5L13.8744 24.3333C12.8229 22.84 12.3523 21.0142 12.5508 19.1984C12.7494 17.3826 13.6035 15.7018 14.9529 14.4712C16.3022 13.2407 18.0541 12.5452 19.8797 12.5151C21.7052 12.485 23.4791 13.1224 24.8682 14.3078C26.2574 15.4932 27.1664 17.145 27.4246 18.9532C27.6829 20.7614 27.2726 22.6018 26.2709 24.129C25.2691 25.6561 23.7447 26.765 21.9838 27.2476C20.2228 27.7301 18.3464 27.5532 16.7065 26.75L12.5 27.5" stroke="#15191E" stroke-width="1.5" stroke-linecap="round" stroke-linejoin="round"/>
<path d="M17.5 18.3335C17.5 18.444 17.5439 18.55 17.622 18.6281C17.7002 18.7063 17.8062 18.7502 17.9167 18.7502C18.0272 18.7502 18.1332 18.7063 18.2113 18.6281C18.2894 18.55 18.3333 18.444 18.3333 18.3335V17.5002C18.3333 17.3897 18.2894 17.2837 18.2113 17.2055C18.1332 17.1274 18.0272 17.0835 17.9167 17.0835C17.8062 17.0835 17.7002 17.1274 17.622 17.2055C17.5439 17.2837 17.5 17.3897 17.5 17.5002V18.3335ZM17.5 18.3335C17.5 19.4386 17.939 20.4984 18.7204 21.2798C19.5018 22.0612 20.5616 22.5002 21.6667 22.5002H22.5C22.6105 22.5002 22.7165 22.4563 22.7946 22.3781C22.8728 22.3 22.9167 22.194 22.9167 22.0835C22.9167 21.973 22.8728 21.867 22.7946 21.7889C22.7165 21.7107 22.6105 21.6668 22.5 21.6668H21.6667C21.5562 21.6668 21.4502 21.7107 21.372 21.7889C21.2939 21.867 21.25 21.973 21.25 22.0835C21.25 22.194 21.2939 22.3 21.372 22.3781C21.4502 22.4563 21.5562 22.5002 21.6667 22.5002" stroke="#15191E" stroke-width="1.5" stroke-linecap="round" stroke-linejoin="round"/>
</svg>
